<svg width="924" height="641" viewBox="0 0 924 641" fill="none" xmlns="http://www.w3.org/2000/svg">
<path d="M90.144 572.456C147.744 572.456 175.68 543.656 175.68 509.96C175.68 435.944 58.464 461.576 58.464 424.424C58.464 411.752 69.12 401.384 96.768 401.384C114.624 401.384 133.92 406.568 152.64 417.224L167.04 381.8C148.32 369.992 122.4 363.944 97.056 363.944C39.744 363.944 12.096 392.456 12.096 426.728C12.096 501.608 129.312 475.688 129.312 513.416C129.312 525.8 118.08 535.016 90.432 535.016C66.24 535.016 40.896 526.376 23.904 513.992L8.064 549.128C25.92 562.952 58.176 572.456 90.144 572.456ZM279.272 571.304C311.816 571.304 337.448 556.904 348.68 532.136L313.832 513.128C305.48 528.104 293.096 534.44 278.984 534.44C256.232 534.44 238.376 518.6 238.376 491.528C238.376 464.456 256.232 448.616 278.984 448.616C293.096 448.616 305.48 455.24 313.832 469.928L348.68 451.208C337.448 425.864 311.816 411.752 279.272 411.752C228.872 411.752 192.872 444.872 192.872 491.528C192.872 538.184 228.872 571.304 279.272 571.304ZM446.308 571.304C495.556 571.304 531.268 538.184 531.268 491.528C531.268 444.872 495.556 411.752 446.308 411.752C397.06 411.752 361.06 444.872 361.06 491.528C361.06 538.184 397.06 571.304 446.308 571.304ZM446.308 534.44C423.844 534.44 406.564 518.312 406.564 491.528C406.564 464.744 423.844 448.616 446.308 448.616C468.772 448.616 485.764 464.744 485.764 491.528C485.764 518.312 468.772 534.44 446.308 534.44ZM655.475 411.752C634.451 411.752 616.307 418.952 604.211 432.2V414.056H561.299V569H606.227V492.392C606.227 463.88 621.779 450.632 643.379 450.632C663.251 450.632 674.771 462.152 674.771 487.208V569H719.699V480.296C719.699 433.064 692.051 411.752 655.475 411.752ZM913.887 492.104C913.887 442.28 878.751 411.752 833.247 411.752C786.015 411.752 750.591 445.16 750.591 491.528C750.591 537.608 785.439 571.304 839.007 571.304C866.943 571.304 888.543 562.664 902.943 546.248L879.039 520.328C868.383 530.408 856.575 535.304 840.159 535.304C816.543 535.304 800.127 523.496 795.807 504.2H913.023C913.311 500.456 913.887 495.56 913.887 492.104ZM833.535 445.736C853.695 445.736 868.383 458.408 871.551 477.992H795.231C798.399 458.12 813.087 445.736 833.535 445.736Z" fill="#292929"/>
<path d="M23.904 279H171.648V240.984H70.56V77.4H23.904V279ZM345.2 202.104C345.2 152.28 310.064 121.752 264.56 121.752C217.328 121.752 181.904 155.16 181.904 201.528C181.904 247.608 216.752 281.304 270.32 281.304C298.256 281.304 319.856 272.664 334.256 256.248L310.352 230.328C299.696 240.408 287.888 245.304 271.472 245.304C247.856 245.304 231.44 233.496 227.12 214.2H344.336C344.624 210.456 345.2 205.56 345.2 202.104ZM264.848 155.736C285.008 155.736 299.696 168.408 302.864 187.992H226.544C229.712 168.12 244.4 155.736 264.848 155.736Z" fill="#292929"/>
<path d="M646.329 180.91H656.676C663.991 180.928 671.237 179.643 677.995 177.129C684.753 174.615 690.888 170.923 696.046 166.265L753 114.724L737.539 100.73L679.381 152.946L667.294 142.094L725.452 89.8717L709.448 75.9336L651.506 127.95L639.454 117.098L697.612 64.8756L682.025 51L624.619 102.135C619.431 106.767 615.318 112.277 612.518 118.345C609.719 124.414 608.288 130.921 608.308 137.49V146.773L578.297 173.719L441.267 51C410.455 85.2798 428.651 148.279 463.339 179.429L522.832 232.845C541.307 249.432 544.974 250.912 565.932 243.34C570.448 241.71 572.09 241.891 576.3 245.664L585.346 253.243C587.385 255.117 587.433 255.667 587.433 259.253V262.714C587.433 275.883 596.813 283.455 602.992 289.103L675.067 350.878L725.167 305.896L616.317 207.855L646.329 180.91Z" fill="#292929"/>
<path d="M566.078 262.532C545.328 266.349 532.602 269.867 508.268 248.019C507.879 247.669 507.475 247.332 507.085 246.982L493.517 234.8L419 300.898L474.667 350.877L574.867 260.914L566.078 262.532Z" fill="#292929"/>
</svg>
